<svg viewBox="0 0 960 540" xmlns="http://www.w3.org/2000/svg">
<defs>
  <pattern id="dots5" x="0" y="0" width="12" height="12" patternUnits="userSpaceOnUse">
    <circle cx="6" cy="6" r="1" fill="#E8E4D0" opacity="0.6"/>
  </pattern>
</defs>
<rect width="960" height="540" fill="#FFFDF5"/>
<rect width="960" height="540" fill="url(#dots5)"/>
<rect x="4" y="4" width="952" height="532" rx="6" fill="none" stroke="#2C2C2A" stroke-width="3"/>
<!-- 顶部 -->
<rect x="4" y="4" width="952" height="44" fill="#2C2C2A"/>
<text x="480" y="27" font-size="14" font-weight="500" fill="#FAC775" font-family="sans-serif" text-anchor="middle">选择你的角色</text>
<rect x="14" y="12" width="80" height="24" rx="4" fill="#444441"/>
<text x="54" y="28" font-size="11" fill="#D3D1C7" font-family="sans-serif" text-anchor="middle">← 返回</text>
<!-- 左侧角色列表 300px -->
<rect x="8" y="52" width="300" height="480" rx="4" fill="#FFFDF5" stroke="#2C2C2A" stroke-width="2"/>
<rect x="8" y="52" width="300" height="28" fill="#2C2C2A"/>
<text x="158" y="70" font-size="12" font-weight="500" fill="#FAC775" font-family="sans-serif" text-anchor="middle">选择角色</text>
<!-- 鸣人卡（选中） -->
<rect x="16" y="88" width="284" height="88" rx="6" fill="#EAF3DE" stroke="#3B6D11" stroke-width="2.5"/>
<rect x="16" y="88" width="6" height="88" rx="3" fill="#639922"/>
<rect x="28" y="96" width="64" height="64" rx="6" fill="#B5D4F4" stroke="#185FA5" stroke-width="1.5"/>
<text x="60" y="136" font-size="30" text-anchor="middle" font-family="sans-serif">🥷</text>
<text x="106" y="114" font-size="13" font-weight="500" fill="#27500A" font-family="sans-serif">漩涡鸣人</text>
<rect x="106" y="120" width="36" height="14" rx="3" fill="#185FA5"/>
<text x="124" y="130" font-size="9" fill="#E6F1FB" font-family="sans-serif" text-anchor="middle">战士</text>
<rect x="148" y="120" width="24" height="14" rx="3" fill="#444441"/>
<text x="160" y="130" font-size="9" fill="#D3D1C7" font-family="sans-serif" text-anchor="middle">C级</text>
<text x="106" y="148" font-size="10" fill="#3B6D11" font-family="sans-serif">HP 6 · 耗1伤1 · 范围1</text>
<text x="106" y="162" font-size="10" fill="#3B6D11" font-family="sans-serif">螺旋丸 · 影分身</text>
<rect x="260" y="100" width="32" height="16" rx="3" fill="#3B6D11"/>
<text x="276" y="111" font-size="9" fill="#EAF3DE" font-family="sans-serif" text-anchor="middle">已选</text>
<!-- 佐助疾风传卡 -->
<rect x="16" y="184" width="284" height="88" rx="6" fill="#FFFDF5" stroke="#D3D1C7" stroke-width="1.5"/>
<rect x="16" y="184" width="6" height="88" rx="3" fill="#534AB7"/>
<rect x="28" y="192" width="64" height="64" rx="6" fill="#EEEDFE" stroke="#534AB7" stroke-width="1.5"/>
<text x="60" y="232" font-size="30" text-anchor="middle" font-family="sans-serif">⚔️</text>
<text x="106" y="210" font-size="13" font-weight="500" fill="#2C2C2A" font-family="sans-serif">佐助（疾风传）</text>
<rect x="106" y="216" width="36" height="14" rx="3" fill="#534AB7"/>
<text x="124" y="226" font-size="9" fill="#EEEDFE" font-family="sans-serif" text-anchor="middle">法师</text>
<rect x="148" y="216" width="24" height="14" rx="3" fill="#BA7517"/>
<text x="160" y="226" font-size="9" fill="#FFFDF5" font-family="sans-serif" text-anchor="middle">B级</text>
<text x="106" y="244" font-size="10" fill="#5F5E5A" font-family="sans-serif">HP 6 · 耗1伤1 · 范围1</text>
<text x="106" y="258" font-size="10" fill="#5F5E5A" font-family="sans-serif">豪龙火 · 千鸟锐枪 · 【麒麟】</text>
<!-- 春野樱卡 -->
<rect x="16" y="280" width="284" height="88" rx="6" fill="#FFFDF5" stroke="#D3D1C7" stroke-width="1.5"/>
<rect x="16" y="280" width="6" height="88" rx="3" fill="#D4537E"/>
<rect x="28" y="288" width="64" height="64" rx="6" fill="#F4C0D1" stroke="#993556" stroke-width="1.5"/>
<text x="60" y="328" font-size="30" text-anchor="middle" font-family="sans-serif">🌸</text>
<text x="106" y="306" font-size="13" font-weight="500" fill="#2C2C2A" font-family="sans-serif">春野樱</text>
<rect x="106" y="312" width="36" height="14" rx="3" fill="#D4537E"/>
<text x="124" y="322" font-size="9" fill="#FFFDF5" font-family="sans-serif" text-anchor="middle">坦克</text>
<rect x="148" y="312" width="24" height="14" rx="3" fill="#444441"/>
<text x="160" y="322" font-size="9" fill="#D3D1C7" font-family="sans-serif" text-anchor="middle">C级</text>
<text x="106" y="340" font-size="10" fill="#5F5E5A" font-family="sans-serif">HP 8 · 耗2伤1 · 范围1</text>
<text x="106" y="354" font-size="10" fill="#5F5E5A" font-family="sans-serif">铁锤 · 治疗</text>
<!-- 佐助C卡 -->
<rect x="16" y="376" width="284" height="88" rx="6" fill="#FFFDF5" stroke="#D3D1C7" stroke-width="1.5"/>
<rect x="16" y="376" width="6" height="88" rx="3" fill="#D85A30"/>
<rect x="28" y="384" width="64" height="64" rx="6" fill="#F5C4B3" stroke="#993C1D" stroke-width="1.5"/>
<text x="60" y="424" font-size="30" text-anchor="middle" font-family="sans-serif">🔥</text>
<text x="106" y="402" font-size="13" font-weight="500" fill="#2C2C2A" font-family="sans-serif">宇智波佐助</text>
<rect x="106" y="408" width="36" height="14" rx="3" fill="#D85A30"/>
<text x="124" y="418" font-size="9" fill="#FAECE7" font-family="sans-serif" text-anchor="middle">刺客</text>
<rect x="148" y="408" width="24" height="14" rx="3" fill="#444441"/>
<text x="160" y="418" font-size="9" fill="#D3D1C7" font-family="sans-serif" text-anchor="middle">C级</text>
<text x="106" y="436" font-size="10" fill="#5F5E5A" font-family="sans-serif">HP 6 · 耗1伤1 · 范围1</text>
<text x="106" y="450" font-size="10" fill="#5F5E5A" font-family="sans-serif">豪火球 · 千鸟</text>
<!-- 右侧详情预览 640px -->
<rect x="316" y="52" width="640" height="480" rx="4" fill="#FFFDF5" stroke="#2C2C2A" stroke-width="2"/>
<rect x="316" y="52" width="640" height="28" fill="#2C2C2A"/>
<text x="636" y="70" font-size="12" font-weight="500" fill="#FAC775" font-family="sans-serif" text-anchor="middle">角色详情预览 — 漩涡鸣人</text>
<!-- 大头像 -->
<rect x="330" y="88" width="130" height="130" rx="8" fill="#B5D4F4" stroke="#185FA5" stroke-width="2"/>
<text x="395" y="165" font-size="60" text-anchor="middle" font-family="sans-serif">🥷</text>
<!-- 基础属性区 -->
<rect x="470" y="88" width="472" height="130" rx="6" fill="#F1EFE8" stroke="#D3D1C7" stroke-width="1"/>
<text x="486" y="112" font-size="13" font-weight="500" fill="#2C2C2A" font-family="sans-serif">漩涡鸣人</text>
<rect x="486" y="118" width="36" height="14" rx="3" fill="#185FA5"/>
<text x="504" y="128" font-size="9" fill="#E6F1FB" font-family="sans-serif" text-anchor="middle">战士</text>
<rect x="528" y="118" width="24" height="14" rx="3" fill="#444441"/>
<text x="540" y="128" font-size="9" fill="#D3D1C7" font-family="sans-serif" text-anchor="middle">C级</text>
<!-- 属性格 -->
<rect x="486" y="138" width="80" height="36" rx="4" fill="#FFFDF5" stroke="#D3D1C7" stroke-width="0.8"/>
<text x="526" y="152" font-size="9" fill="#888780" font-family="sans-serif" text-anchor="middle">生命值</text>
<text x="526" y="167" font-size="14" font-weight="500" fill="#3B6D11" font-family="sans-serif" text-anchor="middle">6</text>
<rect x="574" y="138" width="80" height="36" rx="4" fill="#FFFDF5" stroke="#D3D1C7" stroke-width="0.8"/>
<text x="614" y="152" font-size="9" fill="#888780" font-family="sans-serif" text-anchor="middle">基础耗气</text>
<text x="614" y="167" font-size="14" font-weight="500" fill="#BA7517" font-family="sans-serif" text-anchor="middle">1</text>
<rect x="662" y="138" width="80" height="36" rx="4" fill="#FFFDF5" stroke="#D3D1C7" stroke-width="0.8"/>
<text x="702" y="152" font-size="9" fill="#888780" font-family="sans-serif" text-anchor="middle">基础伤害</text>
<text x="702" y="167" font-size="14" font-weight="500" fill="#E24B4A" font-family="sans-serif" text-anchor="middle">1</text>
<rect x="750" y="138" width="80" height="36" rx="4" fill="#FFFDF5" stroke="#D3D1C7" stroke-width="0.8"/>
<text x="790" y="152" font-size="9" fill="#888780" font-family="sans-serif" text-anchor="middle">基础范围</text>
<text x="790" y="167" font-size="14" font-weight="500" fill="#534AB7" font-family="sans-serif" text-anchor="middle">1</text>
<rect x="838" y="138" width="88" height="36" rx="4" fill="#FFFDF5" stroke="#D3D1C7" stroke-width="0.8"/>
<text x="882" y="152" font-size="9" fill="#888780" font-family="sans-serif" text-anchor="middle">技能数量</text>
<text x="882" y="167" font-size="14" font-weight="500" fill="#2C2C2A" font-family="sans-serif" text-anchor="middle">2</text>
<!-- 技能详情标题 -->
<rect x="330" y="228" width="610" height="28" rx="4" fill="#2C2C2A"/>
<text x="635" y="246" font-size="11" font-weight="500" fill="#FAC775" font-family="sans-serif" text-anchor="middle">技能详情</text>
<!-- 技能1 螺旋丸 -->
<rect x="330" y="264" width="295" height="90" rx="6" fill="#E6F1FB" stroke="#185FA5" stroke-width="1.5"/>
<rect x="330" y="264" width="295" height="26" rx="4" fill="#185FA5"/>
<text x="360" y="281" font-size="11" font-weight="500" fill="#E6F1FB" font-family="sans-serif">螺旋丸</text>
<rect x="560" y="268" width="52" height="16" rx="3" fill="#0C447C"/>
<text x="586" y="279" font-size="9" fill="#B5D4F4" font-family="sans-serif" text-anchor="middle">⚡×2 · 范围1</text>
<text x="346" y="308" font-size="10" fill="#185FA5" font-family="sans-serif">效果：延迟伤害</text>
<text x="346" y="324" font-size="10" fill="#0C447C" font-family="sans-serif">下回合结束阶段对目标</text>
<text x="346" y="338" font-size="10" fill="#0C447C" font-family="sans-serif">造成 3 点伤害</text>
<rect x="346" y="346" width="60" height="14" rx="3" fill="#B5D4F4"/>
<text x="376" y="356" font-size="9" fill="#042C53" font-family="sans-serif" text-anchor="middle">单体目标</text>
<!-- 技能2 影分身 -->
<rect x="645" y="264" width="295" height="90" rx="6" fill="#EEEDFE" stroke="#534AB7" stroke-width="1.5"/>
<rect x="645" y="264" width="295" height="26" rx="4" fill="#534AB7"/>
<text x="675" y="281" font-size="11" font-weight="500" fill="#EEEDFE" font-family="sans-serif">影分身</text>
<rect x="870" y="268" width="58" height="16" rx="3" fill="#3C3489"/>
<text x="899" y="279" font-size="9" fill="#EEEDFE" font-family="sans-serif" text-anchor="middle">⚡×1 · 自身</text>
<text x="661" y="308" font-size="10" fill="#534AB7" font-family="sans-serif">效果：护盾 + 聚气加成</text>
<text x="661" y="324" font-size="10" fill="#3C3489" font-family="sans-serif">一次性抵挡全额伤害</text>
<text x="661" y="338" font-size="10" fill="#3C3489" font-family="sans-serif">存在期间聚气 +2/次</text>
<rect x="661" y="346" width="60" height="14" rx="3" fill="#BDBAF6"/>
<text x="691" y="356" font-size="9" fill="#26215C" font-family="sans-serif" text-anchor="middle">作用自身</text>
<!-- AI配置 -->
<rect x="330" y="364" width="610" height="28" rx="4" fill="#444441"/>
<text x="635" y="382" font-size="11" font-weight="500" fill="#D3D1C7" font-family="sans-serif" text-anchor="middle">AI 配置（随机抽取）</text>
<rect x="330" y="400" width="610" height="60" rx="6" fill="#F1EFE8" stroke="#D3D1C7" stroke-width="1"/>
<text x="430" y="424" font-size="11" fill="#5F5E5A" font-family="sans-serif" text-anchor="middle">AI 角色</text>
<text x="430" y="442" font-size="11" font-weight="500" fill="#2C2C2A" font-family="sans-serif" text-anchor="middle">随机从剩余角色中抽取</text>
<line x1="548" y1="400" x2="548" y2="460" stroke="#D3D1C7" stroke-width="1"/>
<text x="636" y="424" font-size="11" fill="#5F5E5A" font-family="sans-serif" text-anchor="middle">AI 数量</text>
<rect x="700" y="408" width="32" height="28" rx="4" fill="#FFFDF5" stroke="#D3D1C7" stroke-width="1"/>
<text x="716" y="426" font-size="14" font-weight="500" fill="#2C2C2A" font-family="sans-serif" text-anchor="middle">−</text>
<rect x="740" y="408" width="40" height="28" rx="4" fill="#2C2C2A"/>
<text x="760" y="426" font-size="14" font-weight="500" fill="#FAC775" font-family="sans-serif" text-anchor="middle">2</text>
<rect x="788" y="408" width="32" height="28" rx="4" fill="#FFFDF5" stroke="#D3D1C7" stroke-width="1"/>
<text x="804" y="426" font-size="14" font-weight="500" fill="#2C2C2A" font-family="sans-serif" text-anchor="middle">+</text>
<!-- 开始按钮 -->
<rect x="330" y="470" width="610" height="52" rx="8" fill="#3B6D11" stroke="#2C2C2A" stroke-width="2.5"/>
<text x="635" y="500" font-size="16" font-weight="500" fill="#EAF3DE" font-family="sans-serif" text-anchor="middle">开始游戏！（你：鸣人 · AI ×2 随机）</text>
</svg>
