<svg viewBox="0 0 960 540" xmlns="http://www.w3.org/2000/svg">
<defs>
  <pattern id="dots" x="0" y="0" width="12" height="12" patternUnits="userSpaceOnUse">
    <circle cx="6" cy="6" r="1" fill="#E8E4D0" opacity="0.6"/>
  </pattern>
</defs>
<rect width="960" height="540" fill="#FFFDF5"/>
<rect width="960" height="540" fill="url(#dots)"/>
<rect x="4" y="4" width="952" height="532" rx="6" fill="none" stroke="#2C2C2A" stroke-width="3"/>
<!-- 顶部栏 -->
<rect x="4" y="4" width="952" height="44" fill="#2C2C2A"/>
<text x="24" y="27" font-size="13" font-weight="500" fill="#FAC775" font-family="sans-serif">第 3 回合</text>
<text x="480" y="27" font-size="13" font-weight="500" fill="#FFFDF5" font-family="sans-serif" text-anchor="middle">⚡ 出拳阶段 — 请选择手势</text>
<rect x="840" y="10" width="108" height="24" rx="4" fill="#533AB7" opacity="0.85"/>
<text x="894" y="26" font-size="12" fill="#EEEDFE" font-family="sans-serif" text-anchor="middle">剩余时间 08s</text>
<!-- 左侧日志 -->
<rect x="8" y="52" width="188" height="480" rx="4" fill="#FFFDF5" stroke="#2C2C2A" stroke-width="2"/>
<rect x="8" y="52" width="188" height="28" fill="#2C2C2A"/>
<text x="102" y="70" font-size="12" font-weight="500" fill="#FAC775" font-family="sans-serif" text-anchor="middle">📜 战斗日志</text>
<rect x="14" y="86" width="176" height="46" rx="3" fill="#EAF3DE" stroke="#C0DD97" stroke-width="0.8"/>
<text x="22" y="101" font-size="10" font-weight="500" fill="#27500A" font-family="sans-serif">回合 2 — 鸣人获胜</text>
<text x="22" y="115" font-size="10" fill="#3B6D11" font-family="sans-serif">使用螺旋丸 → 佐助</text>
<text x="22" y="127" font-size="10" fill="#3B6D11" font-family="sans-serif">延迟伤害已挂载 ⏱</text>
<rect x="14" y="136" width="176" height="36" rx="3" fill="#FCEBEB" stroke="#F7C1C1" stroke-width="0.8"/>
<text x="22" y="151" font-size="10" font-weight="500" fill="#791F1F" font-family="sans-serif">回合 2 结束</text>
<text x="22" y="165" font-size="10" fill="#A32D2D" font-family="sans-serif">佐助受到延迟伤害 1pt</text>
<rect x="14" y="176" width="176" height="26" rx="3" fill="#FAEEDA" stroke="#FAC775" stroke-width="0.8"/>
<text x="22" y="191" font-size="10" font-weight="500" fill="#412402" font-family="sans-serif">佐助 被麻痹！跳过本回合</text>
<rect x="14" y="206" width="176" height="26" rx="3" fill="#E6F1FB" stroke="#B5D4F4" stroke-width="0.8"/>
<text x="22" y="221" font-size="10" fill="#0C447C" font-family="sans-serif">回合 3 — 出拳阶段开始</text>
<!-- 中央战场环形 -->
<circle cx="480" cy="295" r="165" fill="#EAF3DE" opacity="0.4" stroke="#3B6D11" stroke-width="1" stroke-dasharray="6 4"/>
<circle cx="480" cy="295" r="90" fill="#FFFDF5" opacity="0.7" stroke="#B4B2A9" stroke-width="0.8" stroke-dasharray="3 3"/>
<line x1="480" y1="295" x2="480" y2="138" stroke="#B4B2A9" stroke-width="0.8" stroke-dasharray="4 3" opacity="0.6"/>
<line x1="480" y1="295" x2="319" y2="390" stroke="#B4B2A9" stroke-width="0.8" stroke-dasharray="4 3" opacity="0.6"/>
<line x1="480" y1="295" x2="641" y2="390" stroke="#B4B2A9" stroke-width="0.8" stroke-dasharray="4 3" opacity="0.6"/>
<text x="533" y="215" font-size="11" fill="#888780" font-family="sans-serif" text-anchor="middle">距离 1</text>
<text x="390" y="358" font-size="11" fill="#888780" font-family="sans-serif" text-anchor="middle">距离 1</text>
<text x="574" y="358" font-size="11" fill="#888780" font-family="sans-serif" text-anchor="middle">距离 1</text>
<!-- 鸣人（顶） -->
<g transform="translate(480,130)">
  <rect x="-52" y="-38" width="104" height="76" rx="4" fill="#FFFDF5" stroke="#2C2C2A" stroke-width="2.5"/>
  <rect x="-28" y="-32" width="56" height="56" rx="4" fill="#B5D4F4" stroke="#185FA5" stroke-width="1.5"/>
  <text x="0" y="-1" font-size="20" text-anchor="middle" font-family="sans-serif">🥷</text>
  <rect x="-48" y="26" width="96" height="16" rx="2" fill="#2C2C2A"/>
  <text x="0" y="38" font-size="11" font-weight="500" fill="#FFFDF5" font-family="sans-serif" text-anchor="middle">漩涡鸣人（你）</text>
  <rect x="-48" y="-52" width="96" height="10" rx="3" fill="#D3D1C7"/>
  <rect x="-48" y="-52" width="72" height="10" rx="3" fill="#639922"/>
  <text x="-48" y="-55" font-size="9" fill="#3B6D11" font-family="sans-serif">HP 6/8</text>
  <text x="50" y="-28" font-size="10" fill="#BA7517" font-family="sans-serif">⚡×4</text>
  <rect x="-48" y="44" width="50" height="14" rx="3" fill="#533AB7"/>
  <text x="-23" y="54" font-size="9" fill="#EEEDFE" font-family="sans-serif" text-anchor="middle">影分身</text>
  <rect x="4" y="44" width="44" height="14" rx="3" fill="#3B6D11"/>
  <text x="26" y="54" font-size="9" fill="#EAF3DE" font-family="sans-serif" text-anchor="middle">✓ 已选择</text>
</g>
<!-- 佐助（左下） -->
<g transform="translate(312,388)">
  <rect x="-52" y="-38" width="104" height="76" rx="4" fill="#FFFDF5" stroke="#2C2C2A" stroke-width="2.5"/>
  <rect x="-28" y="-32" width="56" height="56" rx="4" fill="#F5C4B3" stroke="#993C1D" stroke-width="1.5"/>
  <text x="0" y="-1" font-size="20" text-anchor="middle" font-family="sans-serif">⚔️</text>
  <rect x="-48" y="26" width="96" height="16" rx="2" fill="#2C2C2A"/>
  <text x="0" y="38" font-size="11" font-weight="500" fill="#FFFDF5" font-family="sans-serif" text-anchor="middle">宇智波佐助 AI</text>
  <rect x="-48" y="-52" width="96" height="10" rx="3" fill="#D3D1C7"/>
  <rect x="-48" y="-52" width="36" height="10" rx="3" fill="#E24B4A"/>
  <text x="-48" y="-55" font-size="9" fill="#A32D2D" font-family="sans-serif">HP 2/6</text>
  <text x="50" y="-28" font-size="10" fill="#BA7517" font-family="sans-serif">⚡×2</text>
  <rect x="-48" y="44" width="50" height="14" rx="3" fill="#BA7517"/>
  <text x="-23" y="54" font-size="9" fill="#412402" font-family="sans-serif" text-anchor="middle">麻痹中</text>
  <rect x="4" y="44" width="44" height="14" rx="3" fill="#444441"/>
  <text x="26" y="54" font-size="9" fill="#D3D1C7" font-family="sans-serif" text-anchor="middle">思考中...</text>
</g>
<!-- 春野樱（右下） -->
<g transform="translate(648,388)">
  <rect x="-52" y="-38" width="104" height="76" rx="4" fill="#FFFDF5" stroke="#2C2C2A" stroke-width="2.5"/>
  <rect x="-28" y="-32" width="56" height="56" rx="4" fill="#F4C0D1" stroke="#993556" stroke-width="1.5"/>
  <text x="0" y="-1" font-size="20" text-anchor="middle" font-family="sans-serif">🌸</text>
  <rect x="-48" y="26" width="96" height="16" rx="2" fill="#2C2C2A"/>
  <text x="0" y="38" font-size="11" font-weight="500" fill="#FFFDF5" font-family="sans-serif" text-anchor="middle">春野樱 AI</text>
  <rect x="-48" y="-52" width="96" height="10" rx="3" fill="#D3D1C7"/>
  <rect x="-48" y="-52" width="86" height="10" rx="3" fill="#639922"/>
  <text x="-48" y="-55" font-size="9" fill="#3B6D11" font-family="sans-serif">HP 7/8</text>
  <text x="50" y="-28" font-size="10" fill="#BA7517" font-family="sans-serif">⚡×5</text>
  <rect x="4" y="44" width="44" height="14" rx="3" fill="#444441"/>
  <text x="26" y="54" font-size="9" fill="#D3D1C7" font-family="sans-serif" text-anchor="middle">思考中...</text>
</g>
<!-- 漫画气泡 -->
<rect x="610" y="58" width="148" height="32" rx="12" fill="#FAC775" stroke="#BA7517" stroke-width="1.5"/>
<polygon points="630,90 640,102 650,90" fill="#FAC775" stroke="#BA7517" stroke-width="1" stroke-linejoin="round"/>
<text x="684" y="78" font-size="11" font-weight="500" fill="#412402" font-family="sans-serif" text-anchor="middle">石头！别给我耍花招！</text>
<!-- 右侧操作面板 -->
<rect x="764" y="52" width="192" height="480" rx="4" fill="#FFFDF5" stroke="#2C2C2A" stroke-width="2"/>
<rect x="764" y="52" width="192" height="28" fill="#2C2C2A"/>
<text x="860" y="70" font-size="12" font-weight="500" fill="#FAC775" font-family="sans-serif" text-anchor="middle">🥊 选择手势</text>
<!-- 石头按钮（选中） -->
<rect x="774" y="88" width="172" height="52" rx="6" fill="#EAF3DE" stroke="#3B6D11" stroke-width="2"/>
<text x="860" y="108" font-size="22" text-anchor="middle" font-family="sans-serif">✊</text>
<text x="860" y="128" font-size="12" font-weight="500" fill="#27500A" font-family="sans-serif" text-anchor="middle">石头</text>
<!-- 布按钮 -->
<rect x="774" y="148" width="172" height="52" rx="6" fill="#FFFDF5" stroke="#B4B2A9" stroke-width="1.5"/>
<text x="860" y="168" font-size="22" text-anchor="middle" font-family="sans-serif">✋</text>
<text x="860" y="188" font-size="12" font-weight="500" fill="#5F5E5A" font-family="sans-serif" text-anchor="middle">布</text>
<!-- 剪刀按钮 -->
<rect x="774" y="208" width="172" height="52" rx="6" fill="#FFFDF5" stroke="#B4B2A9" stroke-width="1.5"/>
<text x="860" y="228" font-size="22" text-anchor="middle" font-family="sans-serif">✌</text>
<text x="860" y="248" font-size="12" font-weight="500" fill="#5F5E5A" font-family="sans-serif" text-anchor="middle">剪刀</text>
<line x1="774" y1="272" x2="946" y2="272" stroke="#D3D1C7" stroke-width="1"/>
<text x="860" y="289" font-size="11" fill="#888780" font-family="sans-serif" text-anchor="middle">— 技能 —</text>
<!-- 螺旋丸（可用） -->
<rect x="774" y="296" width="172" height="48" rx="6" fill="#B5D4F4" stroke="#185FA5" stroke-width="1.5"/>
<text x="784" y="316" font-size="11" font-weight="500" fill="#042C53" font-family="sans-serif">螺旋丸</text>
<text x="784" y="330" font-size="10" fill="#185FA5" font-family="sans-serif">2耗 · 范围1 · 延迟3伤</text>
<rect x="896" y="302" width="44" height="16" rx="3" fill="#185FA5"/>
<text x="918" y="313" font-size="10" fill="#E6F1FB" font-family="sans-serif" text-anchor="middle">⚡×2</text>
<!-- 影分身（可用） -->
<rect x="774" y="352" width="172" height="48" rx="6" fill="#EEEDFE" stroke="#534AB7" stroke-width="1.5"/>
<text x="784" y="372" font-size="11" font-weight="500" fill="#26215C" font-family="sans-serif">影分身</text>
<text x="784" y="386" font-size="10" fill="#534AB7" font-family="sans-serif">1耗 · 护盾+聚气加成</text>
<rect x="896" y="358" width="44" height="16" rx="3" fill="#534AB7"/>
<text x="918" y="369" font-size="10" fill="#EEEDFE" font-family="sans-serif" text-anchor="middle">⚡×1</text>
<!-- 未解锁技能 -->
<rect x="774" y="408" width="172" height="48" rx="6" fill="#F1EFE8" stroke="#B4B2A9" stroke-width="1" stroke-dasharray="4 3"/>
<text x="784" y="428" font-size="11" font-weight="500" fill="#888780" font-family="sans-serif">【麒麟】</text>
<text x="784" y="442" font-size="10" fill="#B4B2A9" font-family="sans-serif">未解锁 — 先使用豪龙火</text>
</svg>
